<?xml version="1.0" standalone="no"?><!DOCTYPE svg PUBLIC "-//W3C//DTD SVG 1.1//EN" "http://www.w3.org/Graphics/SVG/1.1/DTD/svg11.dtd"><svg t="1764583753350" class="icon" viewBox="0 0 1024 1024" version="1.1" xmlns="http://www.w3.org/2000/svg" p-id="2621" xmlns:xlink="http://www.w3.org/1999/xlink" width="200" height="200"><path d="M304.14832 1001.789108l66.113557-54.062573-108.681344-80.166859-32.14832 79.091541c-18.688297 45.979143 36.301275 86.544612 74.716107 55.137891z" fill="#402819" p-id="2622"></path><path d="M273.891078 1023.96292c-12.236385 0-24.472769-3.893395-35.077637-11.754345-22.099652-16.2781-29.960603-44.310545-19.652375-69.747393l32.14832-79.091541c1.297798-3.188876 3.967555-5.599073 7.304751-6.526072a11.086906 11.086906 0 0 1 9.603708 1.742758l108.681344 80.16686a11.138818 11.138818 0 0 1 0.444959 17.575898l-66.113557 54.062572c-11.012746 9.010429-24.13905 13.534183-37.339513 13.534183z m-7.378911-138.938586l-26.771727 65.853997c-7.93511 19.541136 1.631518 35.633835 12.236385 43.457706 10.604867 7.82387 28.811124 12.236385 45.126304-1.112399l55.026651-44.977983-85.617613-63.184241z" fill="#231815" p-id="2623"></path><path d="M719.8146 1001.789108l-66.113557-54.062573 108.681344-80.166859 32.14832 79.091541c18.688297 45.979143-36.301275 86.544612-74.716107 55.137891z" fill="#402819" p-id="2624"></path><path d="M750.108922 1023.96292c-13.163384 0-26.326767-4.523754-37.339513-13.534183l-66.113557-54.062572a11.146234 11.146234 0 0 1-4.078795-8.899189c0.07416-3.448436 1.742758-6.637312 4.523754-8.676709l108.681344-80.16686c2.780997-2.039397 6.303592-2.669757 9.603708-1.742758 3.300116 0.926999 6.006952 3.337196 7.304751 6.526072l32.14832 79.091541c10.345307 25.399768 2.447277 53.432213-19.652375 69.747393-10.641947 7.82387-22.878331 11.754345-35.114717 11.754345z m-23.249131-30.776361c16.31518 13.348783 34.521437 8.973349 45.126304 1.112398 10.604867-7.82387 20.171495-23.91657 12.236385-43.457706l-26.771727-65.853997-85.617613 63.184241 55.026651 44.977984z" fill="#231815" p-id="2625"></path><path d="M124.050985 669.070684a387.930475 305.501738 0 1 0 775.86095 0 387.930475 305.501738 0 1 0-775.86095 0Z" fill="#402819" p-id="2626"></path><path d="M511.98146 985.696408C291.949015 985.696408 112.926999 843.643105 112.926999 669.070684s179.022016-316.625724 399.054461-316.625725 399.054461 142.053302 399.054461 316.625725-179.022016 316.625724-399.054461 316.625724z m0-611.003476C304.1854 374.692932 135.174971 506.734647 135.174971 669.070684s169.047509 294.377752 376.806489 294.377752 376.806489-132.041715 376.806489-294.377752-169.047509-294.377752-376.806489-294.377752z" fill="#231815" p-id="2627"></path><path d="M151.63847 418.447277a360.34299 128.07416 0 1 0 720.68598 0 360.34299 128.07416 0 1 0-720.68598 0Z" fill="#402819" p-id="2628"></path><path d="M511.98146 557.645423c-97.483198 0-189.293163-13.534183-258.521437-38.155272-72.825029-25.881808-112.945539-61.775203-112.945539-101.042874S180.634994 343.286211 253.460023 317.404403c69.228273-24.584009 161.038239-38.155272 258.521437-38.155272s189.293163 13.534183 258.521437 38.155272c72.825029 25.881808 112.945539 61.775203 112.945539 101.042874s-40.12051 75.161066-112.945539 101.042874c-69.228273 24.584009-161.038239 38.155272-258.521437 38.155272z m0-256.11124c-208.908459 0-349.219003 60.477404-349.219003 116.950174s140.310545 116.950174 349.219003 116.950174 349.219003-60.477404 349.219003-116.950174-140.310545-116.950174-349.219003-116.950174z" fill="#231815" p-id="2629"></path><path d="M243.707995 412.180765a268.273465 57.436848 0 1 0 536.54693 0 268.273465 57.436848 0 1 0-536.54693 0Z" fill="#A29828" p-id="2630"></path><path d="M511.98146 480.778679c-96.630359 0-279.397451-14.312862-279.397451-68.560834s182.767092-68.560834 279.397451-68.560835 279.397451 14.312862 279.397451 68.560835-182.767092 68.560834-279.397451 68.560834z m0-114.910776c-70.896871 0-137.455388 5.895713-187.365006 16.574739-56.954809 12.199305-69.784473 25.918888-69.784473 29.738123s12.829664 17.538818 69.784473 29.738123c49.946698 10.679027 116.468134 16.574739 187.365006 16.574739s137.455388-5.895713 187.365006-16.574739c56.954809-12.199305 69.784473-25.918888 69.784473-29.738123s-12.829664-17.538818-69.784473-29.738123c-49.909618-10.679027-116.468134-16.574739-187.365006-16.574739z" fill="#231815" p-id="2631"></path><path d="M249.603708 746.753187c-30.516802-30.442642-32.482039-77.052144-18.057937-115.578216 3.522596-9.418308 8.12051-18.799537 15.27694-25.993047 8.15759-8.19467 18.873696-10.493627 30.183083-10.085748 8.00927 0.29664 16.426419 1.928158 22.470452 7.193511 7.89803 6.859791 10.085747 18.428737 8.676709 28.774044-1.779838 13.163384-8.19467 25.733488-11.754345 38.526072-2.484357 8.899189-4.412514 17.983778-5.413674 27.179606-1.594438 14.906141 3.819235 34.261877-5.487833 47.351101-8.15759 11.457706-25.881808 11.939745-35.893395 2.632677" fill="#553727" p-id="2632"></path><path d="M463.74044 341.654693m-70.526072 0a70.526072 70.526072 0 1 0 141.052144 0 70.526072 70.526072 0 1 0-141.052144 0Z" fill="#A59729" p-id="2633"></path><path d="M463.74044 423.304751c-45.015064 0-81.650058-36.634994-81.650058-81.650058s36.634994-81.650058 81.650058-81.650058 81.650058 36.634994 81.650058 81.650058-36.634994 81.650058-81.650058 81.650058z m0-141.089224c-32.778679 0-59.402086 26.660487-59.402085 59.402086s26.660487 59.402086 59.402085 59.402086 59.402086-26.660487 59.402086-59.402086-26.660487-59.402086-59.402086-59.402086z" fill="#231815" p-id="2634"></path><path d="M328.13905 211.133256m-64.11124 0a64.11124 64.11124 0 1 0 128.22248 0 64.11124 64.11124 0 1 0-128.22248 0Z" fill="#A59729" p-id="2635"></path><path d="M328.13905 286.368482c-41.492468 0-75.235226-33.742758-75.235226-75.235226s33.742758-75.235226 75.235226-75.235226 75.235226 33.742758 75.235226 75.235226-33.742758 75.235226-75.235226 75.235226z m0-128.25956c-29.219003 0-52.987254 23.76825-52.987254 52.987254s23.76825 52.987254 52.987254 52.987254 52.987254-23.76825 52.987254-52.987254-23.76825-52.987254-52.987254-52.987254z" fill="#231815" p-id="2636"></path><path d="M405.191194 58.549247m-47.425261 0a47.425261 47.425261 0 1 0 94.850521 0 47.425261 47.425261 0 1 0-94.850521 0Z" fill="#A59729" p-id="2637"></path><path d="M405.191194 117.098494c-32.29664 0-58.549247-26.252607-58.549247-58.549247S372.931634 0 405.191194 0s58.549247 26.252607 58.549246 58.549247-26.252607 58.549247-58.549246 58.549247z m0-94.850522c-20.023175 0-36.301275 16.2781-36.301275 36.301275s16.2781 36.301275 36.301275 36.301274 36.301275-16.2781 36.301274-36.301274S425.214368 22.247972 405.191194 22.247972z" fill="#231815" p-id="2638"></path></svg>